<svg width="107" height="109" viewBox="0 0 107 109" fill="none" xmlns="http://www.w3.org/2000/svg">
<path d="M81.2413 40.2121H79.5755C78.5421 36.9759 76.3237 34.2704 73.3821 32.6584C70.4404 31.0464 67.002 30.6522 63.7822 31.5577C62.1418 27.3348 59.107 23.8271 55.2008 21.6391C51.2947 19.451 46.7618 18.7196 42.3833 19.571C38.0048 20.4223 34.0548 22.803 31.2139 26.3029C28.3731 29.8027 26.8194 34.2025 26.8205 38.7442C26.8205 39.2172 26.8419 39.7012 26.8848 40.2146H25.4763C22.6461 40.2146 19.9318 41.3601 17.9306 43.3991C15.9293 45.4381 14.8051 48.2036 14.8051 51.0872C14.8051 53.9708 15.9293 56.7362 17.9306 58.7753C19.9318 60.8143 22.6461 61.9598 25.4763 61.9598H28.6843V63.5411C28.6869 64.9369 29.2329 66.2746 30.2024 67.2607C31.1719 68.2468 32.4858 68.8007 33.8558 68.8009H72.8627C74.2325 68.8005 75.5462 68.2464 76.5155 67.2604C77.4849 66.2743 78.0307 64.9367 78.0334 63.5411V61.9614H81.2413C84.0715 61.9614 86.7858 60.8159 88.787 58.7769C90.7883 56.7379 91.9126 53.9725 91.9126 51.0889C91.9126 48.2053 90.7883 45.4398 88.787 43.4008C86.7858 41.3618 84.0715 40.2163 81.2413 40.2163V40.2121ZM75.147 63.5411C75.145 64.1571 74.9034 64.7472 74.475 65.1819C74.0466 65.6167 73.4665 65.8606 72.8619 65.8601H33.8558C33.2511 65.8606 32.671 65.6167 32.2426 65.1819C31.8142 64.7472 31.5726 64.1571 31.5706 63.5411V57.441C31.5713 56.8238 31.8123 56.2321 32.2407 55.7957C32.6691 55.3593 33.25 55.114 33.8558 55.1136H72.8627C73.4685 55.114 74.0493 55.3593 74.4778 55.7957C74.9062 56.2321 75.1472 56.8238 75.1478 57.441L75.147 63.5411ZM81.2413 59.0206H78.0334V57.441C78.0316 56.0442 77.4862 54.7051 76.5167 53.7175C75.5472 52.7298 74.2328 52.1743 72.8619 52.1728H33.8558C32.4848 52.1743 31.1704 52.7298 30.2009 53.7175C29.2314 54.7051 28.686 56.0442 28.6843 57.441V59.0206H25.4763C23.4116 59.0206 21.4315 58.185 19.9715 56.6975C18.5116 55.21 17.6914 53.1925 17.6914 51.0889C17.6914 48.9852 18.5116 46.9677 19.9715 45.4802C21.4315 43.9928 23.4116 43.1571 25.4763 43.1571H28.5201C28.7289 43.1572 28.9351 43.1111 29.1247 43.0221C29.3143 42.9331 29.4826 42.8032 29.6181 42.6414C29.7536 42.4797 29.853 42.2899 29.9095 42.0851C29.9659 41.8804 29.9781 41.6656 29.9452 41.4556C29.7954 40.5602 29.7157 39.6541 29.7068 38.7459C29.7047 34.7784 31.0997 30.9418 33.6383 27.9333C36.1768 24.9248 39.6905 22.944 43.5408 22.3511C47.3911 21.7581 51.3224 22.5922 54.6203 24.7018C57.9182 26.8114 60.3638 30.0565 61.5127 33.8473C61.5716 34.0421 61.6695 34.2223 61.8004 34.3765C61.9312 34.5307 62.0921 34.6554 62.2727 34.7429C62.4534 34.8304 62.65 34.8786 62.8499 34.8846C63.0499 34.8905 63.2488 34.854 63.4342 34.7775C64.789 34.2159 66.2474 33.9611 67.7084 34.0308C69.1694 34.1005 70.5981 34.493 71.8954 35.1812C73.1928 35.8693 74.3277 36.8367 75.2217 38.0161C76.1156 39.1956 76.7472 40.559 77.0726 42.0119C77.1455 42.3354 77.3237 42.6243 77.5783 42.8315C77.8328 43.0387 78.1487 43.152 78.4746 43.1529H81.2372C83.3019 43.1529 85.282 43.9886 86.742 45.476C88.2019 46.9635 89.0221 48.981 89.0221 51.0847C89.0221 53.1883 88.2019 55.2058 86.742 56.6933C85.282 58.1808 83.3019 59.0164 81.2372 59.0164L81.2413 59.0206Z" fill="#FBFBFB"/>
<path d="M72.8658 72.9164H33.8515C32.4824 72.9177 31.1698 73.4724 30.2016 74.4586C29.2335 75.4449 28.6889 76.7822 28.6874 78.1771V84.2805C28.6889 85.6755 29.2335 87.0128 30.2016 87.9992C31.1697 88.9856 32.4823 89.5405 33.8515 89.542H72.8658C74.2349 89.5405 75.5475 88.9856 76.5157 87.9992C77.4838 87.0128 78.0284 85.6755 78.0299 84.2805V78.1771C78.0284 76.7822 77.4838 75.4449 76.5156 74.4586C75.5475 73.4724 74.2349 72.9177 72.8658 72.9164ZM75.1435 84.2805C75.1427 84.8957 74.9024 85.4855 74.4754 85.9205C74.0485 86.3555 73.4696 86.6003 72.8658 86.6012H33.8515C33.2476 86.6003 32.6688 86.3555 32.2418 85.9205C31.8149 85.4855 31.5746 84.8957 31.5737 84.2805V78.1771C31.5746 77.5619 31.8149 76.9722 32.2419 76.5373C32.6689 76.1025 33.2477 75.8579 33.8515 75.8572H72.8658C73.4695 75.8579 74.0484 76.1025 74.4754 76.5373C74.9024 76.9722 75.1427 77.5619 75.1435 78.1771V84.2805Z" fill="#FBFBFB"/>
<path d="M55.0085 59.0106H36.8658C36.483 59.0106 36.1159 59.1655 35.8453 59.4412C35.5747 59.717 35.4226 60.091 35.4226 60.481C35.4226 60.8709 35.5747 61.2449 35.8453 61.5207C36.1159 61.7964 36.483 61.9514 36.8658 61.9514H55.0085C55.3913 61.9514 55.7584 61.7964 56.029 61.5207C56.2997 61.2449 56.4517 60.8709 56.4517 60.481C56.4517 60.091 56.2997 59.717 56.029 59.4412C55.7584 59.1655 55.3913 59.0106 55.0085 59.0106Z" fill="#FBFBFB"/>
<path d="M63.2552 59.0148H61.6059C61.2231 59.0148 60.8561 59.1697 60.5854 59.4454C60.3148 59.7212 60.1627 60.0952 60.1627 60.4852C60.1627 60.8751 60.3148 61.2491 60.5854 61.5249C60.8561 61.8007 61.2231 61.9556 61.6059 61.9556H63.2552C63.638 61.9556 64.0051 61.8007 64.2757 61.5249C64.5464 61.2491 64.6984 60.8751 64.6984 60.4852C64.6984 60.0952 64.5464 59.7212 64.2757 59.4454C64.0051 59.1697 63.638 59.0148 63.2552 59.0148Z" fill="#FBFBFB"/>
<path d="M69.8526 59.0148H69.5096C69.1268 59.0148 68.7598 59.1697 68.4891 59.4454C68.2185 59.7212 68.0664 60.0952 68.0664 60.4852C68.0664 60.8751 68.2185 61.2491 68.4891 61.5249C68.7598 61.8007 69.1268 61.9556 69.5096 61.9556H69.8526C70.2354 61.9556 70.6025 61.8007 70.8731 61.5249C71.1438 61.2491 71.2958 60.8751 71.2958 60.4852C71.2958 60.0952 71.1438 59.7212 70.8731 59.4454C70.6025 59.1697 70.2354 59.0148 69.8526 59.0148Z" fill="#FBFBFB"/>
<path d="M55.0085 79.7576H36.8658C36.483 79.7576 36.1159 79.9125 35.8453 80.1882C35.5747 80.464 35.4226 80.838 35.4226 81.228C35.4226 81.6179 35.5747 81.992 35.8453 82.2677C36.1159 82.5435 36.483 82.6984 36.8658 82.6984H55.0085C55.3913 82.6984 55.7584 82.5435 56.029 82.2677C56.2997 81.992 56.4517 81.6179 56.4517 81.228C56.4517 80.838 56.2997 80.464 56.029 80.1882C55.7584 79.9125 55.3913 79.7576 55.0085 79.7576Z" fill="#FBFBFB"/>
<path d="M63.2552 79.7576H61.6059C61.2231 79.7576 60.8561 79.9125 60.5854 80.1882C60.3148 80.464 60.1627 80.838 60.1627 81.228C60.1627 81.6179 60.3148 81.992 60.5854 82.2677C60.8561 82.5435 61.2231 82.6984 61.6059 82.6984H63.2552C63.638 82.6984 64.0051 82.5435 64.2757 82.2677C64.5464 81.992 64.6984 81.6179 64.6984 81.228C64.6984 80.838 64.5464 80.464 64.2757 80.1882C64.0051 79.9125 63.638 79.7576 63.2552 79.7576Z" fill="#FBFBFB"/>
<path d="M69.8526 79.7576H69.5096C69.1268 79.7576 68.7598 79.9125 68.4891 80.1882C68.2185 80.464 68.0664 80.838 68.0664 81.228C68.0664 81.6179 68.2185 81.992 68.4891 82.2677C68.7598 82.5435 69.1268 82.6984 69.5096 82.6984H69.8526C70.2354 82.6984 70.6025 82.5435 70.8731 82.2677C71.1438 81.992 71.2958 81.6179 71.2958 81.228C71.2958 80.838 71.1438 80.464 70.8731 80.1882C70.6025 79.9125 70.2354 79.7576 69.8526 79.7576Z" fill="#FBFBFB"/>
</svg>
