<svg width="109" height="109" viewBox="0 0 109 109" fill="none" xmlns="http://www.w3.org/2000/svg">
<path d="M92.0595 78.6811H86.514C86.1789 77.1318 85.3234 75.744 84.0898 74.7486C82.8562 73.7532 81.3188 73.2103 79.7337 73.2103C78.1486 73.2103 76.6113 73.7532 75.3777 74.7486C74.144 75.744 73.2885 77.1318 72.9535 78.6811H61.0289C60.7444 77.3809 60.0929 76.1895 59.1517 75.2485C58.2104 74.3074 57.019 73.656 55.7187 73.3717V64.4182H82.6573C85.5242 64.393 88.2652 63.2365 90.2835 61.2003C92.3019 59.1641 93.4343 56.4131 93.4343 53.5461C93.4343 50.679 92.3019 47.928 90.2835 45.8919C88.2652 43.8557 85.5242 42.6991 82.6573 42.6739H80.9617C79.9072 39.4388 77.6467 36.7345 74.65 35.1228C71.6534 33.511 68.1509 33.1159 64.8705 34.0195C63.1985 29.7982 60.107 26.2921 56.1283 24.1048C52.1495 21.9175 47.5326 21.1861 43.0726 22.0364C38.6126 22.8868 34.5887 25.2657 31.6939 28.7635C28.7991 32.2612 27.2145 36.659 27.213 41.1993C27.213 41.6782 27.2349 42.1681 27.2777 42.6739H25.8401C24.4043 42.6613 22.9802 42.9332 21.6501 43.4739C20.3199 44.0146 19.1101 44.8134 18.0903 45.8243C17.0706 46.8351 16.2611 48.0379 15.7087 49.3632C15.1564 50.6886 14.8719 52.1102 14.8719 53.5461C14.8719 54.9819 15.1564 56.4035 15.7087 57.7289C16.2611 59.0542 17.0706 60.257 18.0903 61.2679C19.1101 62.2787 20.3199 63.0775 21.6501 63.6182C22.9802 64.159 24.4043 64.4308 25.8401 64.4182H52.7779V73.3717C51.4777 73.6562 50.2865 74.3076 49.3454 75.2486C48.4043 76.1897 47.7529 77.381 47.4685 78.6811H35.5448C35.2097 77.1318 34.3542 75.744 33.1206 74.7486C31.887 73.7532 30.3497 73.2103 28.7645 73.2103C27.1794 73.2103 25.6421 73.7532 24.4085 74.7486C23.1748 75.744 22.3193 77.1318 21.9843 78.6811H16.4388C16.0488 78.6811 15.6748 78.8361 15.399 79.1118C15.1233 79.3876 14.9684 79.7616 14.9684 80.1515C14.9684 80.5415 15.1233 80.9155 15.399 81.1913C15.6748 81.467 16.0488 81.6219 16.4388 81.6219H21.9843C22.3193 83.1713 23.1748 84.5591 24.4085 85.5545C25.6421 86.5499 27.1794 87.0928 28.7645 87.0928C30.3497 87.0928 31.887 86.5499 33.1206 85.5545C34.3542 84.5591 35.2097 83.1713 35.5448 81.6219H47.4685C47.8035 83.1713 48.659 84.5591 49.8926 85.5545C51.1263 86.5499 52.6636 87.0928 54.2487 87.0928C55.8338 87.0928 57.3711 86.5499 58.6048 85.5545C59.8384 84.5591 60.6939 83.1713 61.0289 81.6219H72.9526C73.2877 83.1713 74.1432 84.5591 75.3768 85.5545C76.6104 86.5499 78.1478 87.0928 79.7329 87.0928C81.318 87.0928 82.8553 86.5499 84.089 85.5545C85.3226 84.5591 86.1781 83.1713 86.5131 81.6219H92.0595C92.4495 81.6219 92.8235 81.467 93.0992 81.1913C93.375 80.9155 93.5299 80.5415 93.5299 80.1515C93.5299 79.7616 93.375 79.3876 93.0992 79.1118C92.8235 78.8361 92.4495 78.6811 92.0595 78.6811ZM17.9083 53.5465C17.9108 51.4436 18.7472 49.4275 20.2342 47.9406C21.7212 46.4536 23.7372 45.6172 25.8401 45.6147H28.949C29.1623 45.615 29.3732 45.5688 29.567 45.4794C29.7607 45.3899 29.9326 45.2593 30.0707 45.0966C30.2088 44.9339 30.3098 44.7431 30.3667 44.5375C30.4236 44.3318 30.4349 44.1162 30.4 43.9057C29.7105 39.7623 30.6211 35.5117 32.9475 32.0144C35.2738 28.5171 38.8421 26.0344 42.9299 25.0688C47.0178 24.1032 51.3198 24.7269 54.9651 26.8137C58.6105 28.9005 61.3267 32.2943 62.564 36.3083C62.6237 36.5028 62.7231 36.6828 62.8559 36.8369C62.9887 36.9909 63.152 37.1158 63.3356 37.2035C63.5191 37.2913 63.7188 37.34 63.9221 37.3466C64.1254 37.3532 64.3279 37.3175 64.5167 37.2418C65.8972 36.6814 67.3829 36.4276 68.8711 36.498C70.3593 36.5684 71.8144 36.9612 73.1358 37.6494C74.4571 38.3376 75.6132 39.3046 76.524 40.4837C77.4348 41.6627 78.0786 43.0255 78.4108 44.4779C78.4855 44.8021 78.6679 45.0913 78.9283 45.2984C79.1886 45.5055 79.5115 45.6182 79.8442 45.6181H82.6573C84.7467 45.6396 86.7432 46.4847 88.2131 47.9697C89.6829 49.4548 90.5074 51.4599 90.5074 53.5494C90.5074 55.6389 89.6829 57.644 88.2131 59.1291C86.7432 60.6142 84.7467 61.4593 82.6573 61.4808H25.8401C23.7367 61.4785 21.7201 60.6418 20.2331 59.1543C18.746 57.6667 17.9099 55.6499 17.9083 53.5465ZM28.7641 84.151C27.9731 84.1509 27.1999 83.9162 26.5423 83.4766C25.8847 83.037 25.3722 82.4123 25.0697 81.6815C24.7671 80.9507 24.688 80.1465 24.8424 79.3708C24.9968 78.595 25.3778 77.8824 25.9372 77.3232C26.4965 76.7639 27.2092 76.3831 27.985 76.2288C28.7608 76.0746 29.5649 76.1538 30.2957 76.4566C31.0264 76.7593 31.651 77.2719 32.0905 77.9296C32.5299 78.5873 32.7644 79.3605 32.7644 80.1515C32.7633 81.2121 32.3415 82.2288 31.5915 82.9787C30.8415 83.7285 29.8246 84.1501 28.7641 84.151ZM54.2483 84.151C53.4573 84.151 52.684 83.9165 52.0263 83.477C51.3686 83.0375 50.8559 82.4129 50.5532 81.6821C50.2505 80.9513 50.1713 80.1471 50.3256 79.3713C50.48 78.5954 50.8609 77.8828 51.4202 77.3235C51.9796 76.7641 52.6922 76.3832 53.468 76.2289C54.2438 76.0746 55.048 76.1538 55.7788 76.4565C56.5096 76.7592 57.1343 77.2718 57.5737 77.9295C58.0132 78.5872 58.2478 79.3605 58.2478 80.1515C58.2467 81.2118 57.8251 82.2283 57.0754 82.9781C56.3258 83.7279 55.3094 84.1497 54.2491 84.151H54.2483ZM79.7333 84.151C78.9422 84.1512 78.1689 83.9168 77.5111 83.4774C76.8532 83.038 76.3405 82.4135 76.0377 81.6827C75.7348 80.9519 75.6555 80.1477 75.8097 79.3718C75.9639 78.5959 76.3448 77.8832 76.9041 77.3238C77.4634 76.7643 78.176 76.3833 78.9519 76.229C79.7277 76.0746 80.532 76.1537 81.2628 76.4564C81.9937 76.7591 82.6184 77.2717 83.0579 77.9295C83.4974 78.5872 83.732 79.3605 83.732 80.1515C83.7306 81.2117 83.3089 82.2281 82.5594 82.9778C81.8098 83.7276 80.7935 84.1495 79.7333 84.151Z" fill="#FBFBFB"/>
</svg>
