<svg width="109" height="109" viewBox="0 0 109 109" fill="none" xmlns="http://www.w3.org/2000/svg">
<path d="M86.8024 65.7878C85.2183 65.7902 83.6826 66.3337 82.4497 67.3284C81.2168 68.3231 80.3607 69.7091 80.0234 71.2569H75.3181C72.8126 71.2569 70.7742 68.9042 70.7742 66.0054V57.8317H82.8693C85.7362 57.8065 88.4771 56.6499 90.4955 54.6137C92.5139 52.5775 93.6463 49.8266 93.6463 46.9595C93.6463 44.0925 92.5139 41.3415 90.4955 39.3053C88.4771 37.2691 85.7362 36.1126 82.8693 36.0874H81.1737C80.1193 32.8524 77.859 30.148 74.8625 28.5363C71.866 26.9246 68.3636 26.5294 65.0833 27.433C63.4109 23.2119 60.319 19.706 56.34 17.519C52.3611 15.3321 47.7441 14.601 43.2841 15.4516C38.8241 16.3022 34.8003 18.6813 31.9056 22.1792C29.0109 25.6771 27.4264 30.0749 27.425 34.6153C27.425 35.0942 27.4469 35.5832 27.4897 36.0899H26.0521C24.6163 36.0773 23.1922 36.3492 21.8621 36.8899C20.5319 37.4306 19.322 38.2294 18.3023 39.2403C17.2825 40.2511 16.4731 41.4539 15.9207 42.7792C15.3683 44.1046 15.0839 45.5262 15.0839 46.962C15.0839 48.3979 15.3683 49.8195 15.9207 51.1449C16.4731 52.4702 17.2825 53.673 18.3023 54.6838C19.322 55.6947 20.5319 56.4935 21.8621 57.0342C23.1922 57.5749 24.6163 57.8468 26.0521 57.8342H38.1464V66.008C38.1464 68.9034 36.108 71.2594 33.6024 71.2594H28.8971C28.5343 69.5861 27.5655 68.106 26.1772 67.1038C24.7889 66.1017 23.0791 65.6482 21.3767 65.8307C19.6742 66.0132 18.0993 66.8186 16.9549 68.0922C15.8105 69.3658 15.1774 71.0176 15.1774 72.7298C15.1774 74.442 15.8105 76.0938 16.9549 77.3674C18.0993 78.641 19.6742 79.4464 21.3767 79.6289C23.0791 79.8114 24.7889 79.3579 26.1772 78.3558C27.5655 77.3536 28.5343 75.8735 28.8971 74.2002H33.6024C37.7296 74.2002 41.0872 70.5242 41.0872 66.008V57.8317H52.9899V79.9457C51.3163 80.3085 49.836 81.2774 48.8337 82.6658C47.8314 84.0543 47.3778 85.7643 47.5603 87.467C47.7428 89.1697 48.5484 90.7448 49.8221 91.8893C51.0959 93.0339 52.7478 93.6671 54.4603 93.6671C56.1727 93.6671 57.8247 93.0339 59.0984 91.8893C60.3722 90.7448 61.1778 89.1697 61.3602 87.467C61.5427 85.7643 61.0891 84.0543 60.0868 82.6658C59.0845 81.2774 57.6042 80.3085 55.9307 79.9457V57.8317H67.8342V66.0054C67.8342 70.5217 71.1951 74.1977 75.319 74.1977H80.0243C80.302 75.477 80.9361 76.6516 81.8531 77.5858C82.7702 78.5199 83.9329 79.1756 85.2068 79.477C86.4807 79.7784 87.8139 79.7132 89.0524 79.289C90.2908 78.8647 91.384 78.0988 92.2055 77.0796C93.0271 76.0604 93.5435 74.8295 93.6951 73.5292C93.8468 72.229 93.6274 70.9123 93.0625 69.7314C92.4975 68.5505 91.6099 67.5536 90.5023 66.8557C89.3948 66.1579 88.1123 65.7877 86.8032 65.7878H86.8024ZM22.119 76.7251C21.3281 76.7251 20.5549 76.4906 19.8973 76.0511C19.2397 75.6117 18.7272 74.9872 18.4246 74.2565C18.122 73.5258 18.0428 72.7217 18.1972 71.946C18.3516 71.1703 18.7325 70.4579 19.2918 69.8987C19.8511 69.3395 20.5637 68.9587 21.3394 68.8045C22.1151 68.6503 22.9191 68.7296 23.6498 69.0324C24.3804 69.3352 25.0049 69.8478 25.4441 70.5055C25.8834 71.1632 26.1178 71.9364 26.1176 72.7273C26.1163 73.7873 25.6945 74.8035 24.9449 75.553C24.1953 76.3025 23.179 76.724 22.119 76.7251ZM58.4589 86.7238C58.4591 87.5148 58.2247 88.288 57.7854 88.9457C57.3461 89.6034 56.7216 90.116 55.9909 90.4188C55.2602 90.7215 54.4561 90.8008 53.6804 90.6465C52.9046 90.4923 52.1921 90.1114 51.6328 89.5522C51.0735 88.9929 50.6927 88.2803 50.5384 87.5046C50.3841 86.7288 50.4634 85.9248 50.7661 85.1941C51.0689 84.4634 51.5815 83.8389 52.2393 83.3996C52.897 82.9603 53.6702 82.7259 54.4611 82.726C55.5209 82.7276 56.5369 83.1493 57.2863 83.8987C58.0357 84.6481 58.4574 85.664 58.4589 86.7238ZM18.1203 46.9599C18.1225 44.857 18.9589 42.8408 20.4459 41.3538C21.9329 39.8668 23.9491 39.0304 26.0521 39.0282H29.1609C29.3743 39.0282 29.5851 38.9818 29.7788 38.8922C29.9724 38.8026 30.1443 38.6719 30.2823 38.5092C30.4204 38.3465 30.5214 38.1557 30.5783 37.9501C30.6353 37.7444 30.6468 37.5288 30.612 37.3183C29.923 33.1751 30.8339 28.9249 33.1604 25.4279C35.4868 21.931 39.055 19.4486 43.1426 18.4832C47.2302 17.5178 51.532 18.1414 55.1771 20.228C58.8223 22.3146 61.5385 25.7081 62.776 29.7218C62.836 29.9164 62.9357 30.0964 63.0689 30.2504C63.2021 30.4044 63.3658 30.5291 63.5497 30.6165C63.7336 30.704 63.9337 30.7523 64.1372 30.7584C64.3407 30.7645 64.5433 30.7282 64.7321 30.6519C66.1125 30.0915 67.5982 29.8377 69.0864 29.908C70.5746 29.9783 72.0297 30.3711 73.3512 31.0592C74.6726 31.7473 75.8288 32.7142 76.7397 33.8932C77.6506 35.0721 78.2946 36.4348 78.627 37.8871C78.7015 38.2115 78.8839 38.5009 79.1442 38.7082C79.4046 38.9155 79.7276 39.0283 80.0604 39.0282H82.8693C84.9587 39.0497 86.9552 39.8948 88.425 41.3799C89.8949 42.8649 90.7194 44.87 90.7194 46.9595C90.7194 49.049 89.8949 51.0541 88.425 52.5392C86.9552 54.0243 84.9587 54.8694 82.8693 54.8909H26.0521C23.9493 54.8887 21.9332 54.0524 20.4462 52.5656C18.9592 51.0787 18.1228 49.0628 18.1203 46.9599ZM86.8024 76.7251C86.0115 76.7253 85.2383 76.4909 84.5805 76.0516C83.9228 75.6122 83.4102 74.9877 83.1074 74.2571C82.8047 73.5264 82.7254 72.7223 82.8797 71.9465C83.034 71.1708 83.4148 70.4582 83.9741 69.899C84.5334 69.3397 85.2459 68.9588 86.0217 68.8046C86.7974 68.6503 87.6015 68.7296 88.3322 69.0323C89.0629 69.3351 89.6874 69.8477 90.1267 70.5054C90.566 71.1631 90.8004 71.9364 90.8002 72.7273C90.7989 73.7872 90.3773 74.8032 89.6278 75.5527C88.8784 76.3021 87.8623 76.7238 86.8024 76.7251Z" fill="#FBFBFB"/>
</svg>
