<svg width="54" height="52" viewBox="0 0 54 52" fill="none" xmlns="http://www.w3.org/2000/svg">
<path d="M27.0007 0.577637C12.3375 0.577637 0.450928 11.9383 0.450928 25.9529C0.450928 39.9674 12.3375 51.3281 27.0007 51.3281C41.664 51.3281 53.5506 39.9674 53.5506 25.9529C53.5506 11.9383 41.664 0.577637 27.0007 0.577637ZM37.8004 21.3642C37.8115 21.5809 37.8143 21.7977 37.8143 22.0091C37.8143 28.6173 32.5568 36.2325 22.9381 36.2325C20.0958 36.237 17.3127 35.4568 14.9233 33.9857C15.3299 34.0333 15.7475 34.0518 16.1706 34.0518C18.621 34.0518 20.8749 33.2562 22.6643 31.9134C21.5738 31.8929 20.5173 31.5478 19.6418 30.9262C18.7663 30.3046 18.1155 29.4374 17.7802 28.4455C18.5633 28.5878 19.37 28.5579 20.1393 28.3582C18.9557 28.1295 17.8914 27.5166 17.1267 26.6234C16.3621 25.7302 15.9441 24.6117 15.9438 23.4576V23.3968C16.6491 23.7695 17.4566 23.9969 18.314 24.0233C17.2044 23.3174 16.4189 22.2329 16.1182 20.9918C15.8175 19.7507 16.0242 18.4467 16.6961 17.3464C18.0096 18.8901 19.6477 20.1529 21.5043 21.0531C23.3609 21.9533 25.3945 22.4708 27.4737 22.5721C27.2093 21.4998 27.3231 20.374 27.7973 19.3699C28.2714 18.3657 29.0794 17.5394 30.0956 17.0194C31.1119 16.4994 32.2794 16.3148 33.4166 16.4944C34.5539 16.674 35.5973 17.2077 36.3844 18.0125C37.5548 17.7912 38.6771 17.3809 39.7032 16.7993C39.3131 17.9574 38.4965 18.9408 37.4049 19.5668C38.4416 19.4474 39.4539 19.1811 40.4084 18.7764C39.7073 19.7806 38.8241 20.6569 37.8004 21.3642Z" fill="#0F1353"/>
</svg>
