<svg width="54" height="52" viewBox="0 0 54 52" fill="none" xmlns="http://www.w3.org/2000/svg">
<path d="M31.7041 25.5095L25.4926 22.7394C24.9505 22.4988 24.5053 22.7684 24.5053 23.342V28.5598C24.5053 29.1334 24.9505 29.403 25.4926 29.1625L31.7014 26.3923C32.2462 26.1492 32.2462 25.7527 31.7041 25.5095ZM27.2709 0.575684C12.6076 0.575684 0.721069 11.9364 0.721069 25.9509C0.721069 39.9654 12.6076 51.3261 27.2709 51.3261C41.9341 51.3261 53.8207 39.9654 53.8207 25.9509C53.8207 11.9364 41.9341 0.575684 27.2709 0.575684ZM27.2709 36.2596C13.6807 36.2596 13.4429 35.0886 13.4429 25.9509C13.4429 16.8132 13.6807 15.6422 27.2709 15.6422C40.8611 15.6422 41.0989 16.8132 41.0989 25.9509C41.0989 35.0886 40.8611 36.2596 27.2709 36.2596Z" fill="#0F1353"/>
</svg>
